<svg width="32" height="28" viewBox="0 0 32 28" fill="none" xmlns="http://www.w3.org/2000/svg">
<path d="M31.6977 14.7595L20.0328 27.1345C19.8008 27.3806 19.4211 27.5001 19.168 27.5001C18.8877 27.5001 18.6063 27.4034 18.3833 27.2079C17.9071 26.7904 17.8718 26.0787 18.3047 25.6195L28.1961 15.1251H1.66648C1.02165 15.1251 0.5 14.622 0.5 14.0634C0.5 13.5048 1.02179 12.8751 1.66648 12.8751H28.1954L18.3024 2.37747C17.8695 1.91826 17.9048 1.20606 18.381 0.789109C18.8584 0.373843 19.5953 0.40457 20.0299 0.866031L31.6947 13.241C32.0984 13.6697 32.0984 14.3306 31.6977 14.7595Z" fill="black"/>
</svg>
