<svg width="29" height="29" viewBox="0 0 29 29" fill="none" xmlns="http://www.w3.org/2000/svg">
<path fill-rule="evenodd" clip-rule="evenodd" d="M11.6652 2.66666C9.4561 2.66666 7.66524 4.45752 7.66524 6.66666C7.66524 8.8758 9.4561 10.6667 11.6652 10.6667C13.8744 10.6667 15.6652 8.8758 15.6652 6.66666C15.6652 4.45752 13.8744 2.66666 11.6652 2.66666ZM5.66524 6.66666C5.66524 3.35295 8.35153 0.666656 11.6652 0.666656C14.9789 0.666656 17.6652 3.35295 17.6652 6.66666C17.6652 9.98037 14.9789 12.6667 11.6652 12.6667C8.35153 12.6667 5.66524 9.98037 5.66524 6.66666ZM2.70136 24.8545C3.11173 20.2647 6.9684 16.6667 11.6652 16.6667C12.2175 16.6667 12.6652 16.2189 12.6652 15.6667C12.6652 15.1144 12.2175 14.6667 11.6652 14.6667C5.65455 14.6667 0.770018 19.4874 0.666897 25.4738C0.660058 25.8708 0.888772 26.2342 1.24966 26.3999C4.42181 27.8556 7.95038 28.6667 11.6657 28.6667C12.8433 28.6667 14.0025 28.5852 15.1378 28.4274C15.6848 28.3513 16.0666 27.8462 15.9906 27.2992C15.9145 26.7522 15.4094 26.3704 14.8624 26.4464C13.8181 26.5916 12.7509 26.6667 11.6657 26.6667C8.48376 26.6667 5.45499 26.0211 2.70136 24.8545Z" fill="#17A0B4"/>
<path fill-rule="evenodd" clip-rule="evenodd" d="M18.2764 13.6812C18.4221 12.8072 19.1782 12.1667 20.0643 12.1667H21.9377C22.8237 12.1667 23.5799 12.8072 23.7255 13.6812L23.8683 14.5379C23.9156 14.5644 23.9624 14.5915 24.0089 14.6192L24.8224 14.3144C25.6521 14.0036 26.585 14.3381 27.028 15.1054L27.9647 16.7279C28.4077 17.4952 28.231 18.4703 27.547 19.0334L26.8754 19.5863C26.8758 19.613 26.876 19.6398 26.876 19.6667C26.876 19.6935 26.8758 19.7203 26.8754 19.747L27.547 20.2999C28.231 20.863 28.4077 21.8381 27.9647 22.6054L27.028 24.2279C26.585 24.9952 25.6521 25.3298 24.8224 25.0189L24.0089 24.7141C23.9624 24.7419 23.9156 24.769 23.8683 24.7954L23.7255 25.6521C23.5799 26.5261 22.8237 27.1667 21.9377 27.1667H20.0643C19.1782 27.1667 18.4221 26.5261 18.2764 25.6521L18.1336 24.7954C18.0864 24.769 18.0395 24.7419 17.9931 24.7141L17.1795 25.0189C16.3498 25.3298 15.417 24.9952 14.974 24.2279L14.0373 22.6054C13.5943 21.8381 13.7709 20.863 14.455 20.2999L15.1265 19.747C15.1262 19.7203 15.126 19.6935 15.126 19.6667C15.126 19.6398 15.1262 19.613 15.1265 19.5863L14.455 19.0335C13.7709 18.4703 13.5943 17.4952 14.0373 16.7279L14.974 15.1054C15.417 14.3381 16.3498 14.0036 17.1795 14.3144L17.9931 14.6192C18.0395 14.5915 18.0864 14.5644 18.1336 14.5379L18.2764 13.6812ZM15.1803 19.6306C15.1804 19.6307 15.1803 19.6305 15.1803 19.6306ZM23.9436 14.6436C23.9435 14.6437 23.9437 14.6436 23.9436 14.6436ZM20.2231 14.1667L20.095 14.9352C19.9921 15.5527 19.5904 16.0174 19.1277 16.2735C19.0852 16.297 19.0431 16.3214 19.0015 16.3465C18.548 16.6204 17.9437 16.7364 17.3567 16.5165L16.6266 16.243L15.8488 17.5903L16.4515 18.0865C16.9342 18.4839 17.1365 19.0637 17.1267 19.5931C17.1262 19.6176 17.126 19.6421 17.126 19.6667C17.126 19.6912 17.1262 19.7158 17.1267 19.7402C17.1365 20.2696 16.9342 20.8494 16.4515 21.2468L15.8488 21.743L16.6266 23.0903L17.3567 22.8168C17.9438 22.5969 18.548 22.713 19.0015 22.9868C19.0431 23.0119 19.0852 23.0363 19.1277 23.0598C19.5904 23.3159 19.9921 23.7806 20.095 24.3981L20.2231 25.1667H21.7788L21.9069 24.3981C22.0099 23.7806 22.4116 23.3159 22.8742 23.0598C22.9168 23.0363 22.9588 23.0119 23.0004 22.9868C23.454 22.7129 24.0582 22.5969 24.6452 22.8168L25.3753 23.0903L26.1532 21.743L25.5505 21.2468C25.0677 20.8494 24.8655 20.2696 24.8753 19.7402C24.8757 19.7158 24.876 19.6913 24.876 19.6667C24.876 19.6421 24.8757 19.6175 24.8753 19.5931C24.8655 19.0637 25.0677 18.4839 25.5505 18.0865L26.1532 17.5903L25.3753 16.243L24.6452 16.5165C24.0582 16.7364 23.454 16.6204 23.0004 16.3465C22.9588 16.3214 22.9168 16.297 22.8742 16.2735C22.4116 16.0174 22.0099 15.5527 21.9069 14.9352L21.7788 14.1667H20.2231ZM15.7693 21.6054C15.7693 21.6054 15.7694 21.6055 15.7693 21.6054ZM21.0008 18.4999C20.3565 18.4999 19.8341 19.0223 19.8341 19.6666C19.8341 20.3109 20.3565 20.8333 21.0008 20.8333C21.6451 20.8333 22.1675 20.3109 22.1675 19.6666C22.1675 19.0223 21.6451 18.4999 21.0008 18.4999ZM17.8341 19.6666C17.8341 17.9177 19.2519 16.4999 21.0008 16.4999C22.7497 16.4999 24.1675 17.9177 24.1675 19.6666C24.1675 21.4155 22.7497 22.8333 21.0008 22.8333C19.2519 22.8333 17.8341 21.4155 17.8341 19.6666Z" fill="#17A0B4"/>
</svg>
