<svg width="45" height="31" viewBox="0 0 45 31" fill="none" xmlns="http://www.w3.org/2000/svg">
<path d="M0.335941 14.1563L13.2969 0.406324C13.5547 0.132887 13.9766 7.24792e-05 14.2578 7.24792e-05C14.5692 7.24792e-05 14.8819 0.107494 15.1297 0.32476C15.6588 0.788668 15.698 1.57945 15.217 2.0896L4.22657 13.7501L43.7039 13.7501C44.4204 13.7501 45 14.3091 45 14.9298C45 15.5505 44.4202 16.2501 43.7039 16.2501L4.22735 16.2501L15.2195 27.9141C15.7005 28.4244 15.6613 29.2157 15.1322 29.679C14.6018 30.1404 13.783 30.1063 13.3002 29.5935L0.339222 15.8435C-0.109371 15.3673 -0.109371 14.6329 0.335941 14.1563Z" fill="#117685"/>
</svg>
