<svg width="35" height="41" viewBox="0 0 35 41" fill="none" xmlns="http://www.w3.org/2000/svg">
<path d="M13.7192 7.87567C12.76 4.68015 11.4456 2.70947 9.99555 2.70947C7.05914 2.70947 4.67871 10.7913 4.67871 20.7608C4.67871 30.7302 7.05914 38.8121 9.99555 38.8121C11.4456 38.8121 12.76 36.8414 13.7192 33.6459" stroke="#17A0B4" stroke-width="2"/>
<path d="M22.604 16.871C22.604 15.7952 21.7351 14.9261 20.6596 14.9261H7.56494V16.871H20.6596V24.6507L7.56494 24.6507V26.5956L20.6596 26.5956C21.7351 26.5956 22.604 25.7264 22.604 24.6507V16.871Z" fill="#17A0B4"/>
<path d="M30.3818 17.8435V12.9812C30.3818 10.8326 28.6379 9.09131 26.4929 9.09131H7.56494V11.0362H26.4929C27.5684 11.0362 28.4373 11.9054 28.4373 12.9812V16.3058C26.7177 17.0533 25.5207 18.7673 25.5207 20.7608C25.5207 22.7544 26.7177 24.4136 28.4373 25.2159V28.5405C28.4373 29.6163 27.5684 30.4854 26.4929 30.4854L7.56494 30.4855V32.4304L26.4929 32.4304C28.6379 32.4304 30.3818 30.686 30.3818 28.5405V23.6782C28.7715 23.6782 27.4651 22.3715 27.4651 20.7608C27.4651 19.1502 28.7715 17.8435 30.3818 17.8435Z" fill="#17A0B4"/>
</svg>
